# xmcd CD database file
#
# Track frame offsets:
#	150
#	53530
#	106952
#	160359
#	213760
#
# Disc length: 3559 seconds
#
# Revision: 0
# Processed by: cddbd v1.4PL0 Copyright (c) Steve Scherf et al.
# Submitted via: CDex 1.51
#
DISCID=370de505
DTITLE=Tom Kenyon - Infinite Pool
DYEAR=2003
DGENRE=New Age
TTITLE0=Infinite Pool 1
TTITLE1=Infinite Pool 2
TTITLE2=Infinite Pool 3
TTITLE3=Infinite Pool 4
TTITLE4=Infinite Pool 5
EXTD=YEAR: 2003
EXTT0=
EXTT1=
EXTT2=
EXTT3=
EXTT4=
PLAYORDER=
